<svg version="1.1" id="Layer_1" xmlns="http://www.w3.org/2000/svg" xmlns:xlink="http://www.w3.org/1999/xlink" x="0px" y="0px"
	 width="100%" viewBox="0 0 1370 719" enable-background="new 0 0 1370 719" xml:space="preserve">
<path fill="#FFFFFF" opacity="1.000000" stroke="none" 
	d="
M937.000000,720.000000 
	C624.703918,720.000000 312.907837,720.000000 1.055872,720.000000 
	C1.055872,480.399231 1.055872,240.798416 1.055872,1.098813 
	C457.546204,1.098813 914.092468,1.098813 1370.819336,1.098813 
	C1370.819336,240.666550 1370.819336,480.333252 1370.819336,720.000000 
	C1226.464844,720.000000 1081.982422,720.000000 937.000000,720.000000 
M1092.922852,280.751495 
	C1092.274048,280.468842 1091.625244,280.186218 1090.050415,279.770599 
	C1083.359619,279.827118 1076.668823,279.883667 1069.103149,279.735382 
	C1065.627197,279.047729 1065.058716,280.756317 1065.064087,283.873047 
	C1065.147827,332.166443 1065.113159,380.460114 1065.130493,428.753693 
	C1065.130859,430.003052 1065.410034,431.252319 1065.574707,432.631653 
	C1073.943237,432.631653 1081.918823,432.574615 1089.892944,432.662018 
	C1092.760254,432.693420 1093.434204,431.463623 1092.788452,428.267181 
	C1092.720825,427.076630 1092.653320,425.886078 1092.831055,423.834076 
	C1092.750977,419.323120 1092.670898,414.812164 1092.785400,409.469513 
	C1092.764160,401.650421 1092.740234,393.831329 1092.722046,386.012238 
	C1092.667603,362.560547 1092.615356,339.108826 1092.830322,314.842316 
	C1092.750122,311.994873 1092.669800,309.147400 1092.782715,305.519196 
	C1092.717896,302.573456 1092.652954,299.627686 1092.830322,295.912079 
	C1092.743286,294.043915 1092.656250,292.175720 1092.766357,289.378052 
	C1092.729370,286.620331 1092.692383,283.862640 1092.922852,280.751495 
M713.556274,410.978973 
	C713.556274,410.978973 713.518311,411.017303 713.635071,411.682373 
	C714.083618,412.456055 714.532166,413.229736 715.013977,414.701752 
	C716.300415,416.555847 717.586853,418.409943 719.089111,420.886444 
	C726.218689,429.248688 735.375122,433.972961 746.144958,435.434814 
	C764.179565,437.882690 781.659424,435.587463 798.428650,428.464844 
	C802.774292,426.619049 806.932190,424.331146 811.174194,422.247375 
	C807.473022,413.941620 804.129272,406.438049 800.714111,398.774170 
	C789.027405,405.362701 777.078796,409.246613 764.395752,410.881409 
	C751.984314,412.481201 740.965210,406.608856 738.786316,396.291779 
	C737.479736,390.105133 737.833374,383.567841 737.431519,377.035187 
	C746.700745,376.439178 754.970947,375.898499 763.242432,375.377594 
	C777.168091,374.500702 791.094421,373.636444 805.874817,372.877136 
	C809.934875,372.249176 813.994873,371.621216 818.241638,370.072693 
	C818.164124,355.382843 818.086609,340.693024 818.176880,325.261963 
	C818.113037,324.509399 818.049133,323.756805 818.165771,322.135590 
	C816.682068,302.709442 807.882507,288.184448 789.229980,281.153717 
	C772.722168,274.931396 755.865662,275.376495 739.523315,281.922424 
	C726.190369,287.262939 716.968323,296.902313 712.360779,311.424103 
	C712.230225,312.282623 712.099670,313.141113 711.709839,314.425842 
	C711.709839,314.425842 711.735229,314.924103 711.361145,315.339722 
	C711.210571,316.569061 711.060059,317.798431 710.646851,319.621490 
	C710.658936,320.050812 710.671021,320.480133 710.309692,321.650696 
	C710.268494,347.079803 710.089478,372.510223 710.323914,397.936768 
	C710.362305,402.098907 712.222534,406.244263 713.285706,410.752960 
	C713.285706,410.752960 713.545471,410.999908 713.556274,410.978973 
M1124.631348,260.768311 
	C1124.533569,263.094543 1124.351074,265.420715 1124.350342,267.746979 
	C1124.333862,320.001129 1124.333984,372.255249 1124.351318,424.509399 
	C1124.351929,426.324280 1124.562744,428.139130 1124.367554,430.693817 
	C1124.895874,431.362488 1125.416016,432.606262 1125.953735,432.613861 
	C1134.554077,432.735779 1143.156494,432.699829 1152.248779,432.699829 
	C1152.248779,390.120087 1152.248779,348.234528 1152.248779,305.897919 
	C1159.841187,305.897919 1166.935303,305.897919 1174.179565,305.897919 
	C1176.610718,297.072540 1178.936401,288.629822 1181.433960,279.562958 
	C1171.383423,279.562958 1161.822388,279.562958 1151.651611,279.562958 
	C1152.040405,271.878815 1151.864380,264.674408 1152.887695,257.644592 
	C1154.422607,247.100586 1161.532593,241.371124 1172.221191,241.110321 
	C1174.667114,241.050644 1177.122070,241.365463 1179.947144,241.529663 
	C1181.435059,233.264420 1182.889648,225.183395 1184.541748,216.005737 
	C1177.444214,216.005737 1171.111816,215.584412 1164.851929,216.080322 
	C1140.645508,217.998032 1124.296875,236.093918 1124.631348,260.768311 
M571.911011,282.783539 
	C575.287842,293.742126 578.642334,304.707611 582.045471,315.658020 
	C593.738708,353.283112 605.490356,390.890198 617.080444,428.546997 
	C618.096130,431.846832 619.563538,432.997681 623.020996,432.837128 
	C629.501221,432.536224 636.013794,432.547211 642.495850,432.825623 
	C645.907654,432.972137 647.402527,431.915741 648.425476,428.566101 
	C658.486511,395.624756 668.767944,362.750763 678.920227,329.837128 
	C683.723328,314.265198 688.382446,298.648804 693.536255,282.429565 
	C693.033569,281.544708 692.539917,279.894989 692.026855,279.888947 
	C683.343079,279.786224 674.656921,279.887878 665.232422,280.012451 
	C664.684692,281.570984 664.068115,283.109100 663.599365,284.691010 
	C654.044800,316.934235 644.509277,349.183105 634.959839,381.427795 
	C634.491272,383.010071 633.929260,384.564606 633.225037,386.693817 
	C632.460083,385.550415 632.199280,385.304657 632.110596,385.007538 
	C623.411560,355.851562 614.766541,326.679291 606.004578,297.542236 
	C604.226807,291.630585 602.010620,285.850769 599.237732,279.736633 
	C595.817505,279.804352 592.397278,279.872040 588.330750,279.735657 
	C587.890869,279.812134 587.451050,279.888611 586.112488,279.807068 
	C581.946838,279.765167 577.779175,279.785004 573.616333,279.654236 
	C571.648682,279.592499 570.487183,279.798950 571.911011,282.783539 
M1228.218262,330.340546 
	C1228.149902,329.895264 1228.081665,329.449951 1228.174805,328.078644 
	C1228.174805,312.047760 1228.174805,296.016876 1228.174805,279.899353 
	C1220.132080,279.899353 1212.546509,279.899353 1204.334961,279.666229 
	C1203.898804,279.727997 1203.462524,279.789734 1202.082764,279.824005 
	C1201.783447,281.347931 1201.230225,282.870819 1201.223877,284.395966 
	C1201.156494,300.323761 1201.138306,316.252045 1201.184570,332.179932 
	C1201.225952,346.440369 1201.365356,360.700500 1201.236328,375.642365 
	C1201.318848,376.107025 1201.401489,376.571655 1201.301514,377.903320 
	C1201.408936,380.252563 1201.516357,382.601807 1201.379150,385.751648 
	C1201.660034,388.231262 1201.912598,390.714478 1202.226318,393.189972 
	C1204.982910,414.946411 1218.560059,430.602692 1239.495605,434.889160 
	C1255.767700,438.220734 1271.938721,438.257324 1286.846436,428.357574 
	C1286.846436,437.504639 1287.189331,446.271729 1286.748535,454.999176 
	C1286.319336,463.498840 1281.755493,469.633118 1274.001831,473.248535 
	C1272.066528,474.150909 1270.025635,474.826660 1267.363647,475.868591 
	C1270.520142,483.038025 1273.609375,490.054443 1276.626709,496.907471 
	C1298.100342,493.625031 1312.822876,483.195251 1314.047852,457.502930 
	C1314.008911,457.340210 1313.969849,457.177521 1314.135254,456.095093 
	C1314.121582,412.451202 1314.270752,368.806305 1313.988647,325.164124 
	C1313.910278,313.045776 1317.448853,303.657196 1329.481201,298.487457 
	C1326.247681,291.143951 1323.134399,284.073334 1319.957275,276.857941 
	C1310.835571,278.779297 1303.352173,282.608826 1297.567261,289.567841 
	C1289.308228,299.503204 1287.247925,311.299469 1287.184814,323.690948 
	C1287.091553,342.014008 1287.368652,360.344116 1286.955566,378.659180 
	C1286.438354,401.584412 1274.085571,412.000336 1251.345337,409.343231 
	C1251.179810,409.323914 1251.014282,409.305664 1250.848755,409.286804 
	C1240.250000,408.078827 1233.506714,402.219696 1230.468140,392.114197 
	C1229.471802,388.800537 1228.949341,385.344360 1228.328979,381.027710 
	C1228.212280,367.021240 1228.095581,353.014801 1228.174683,338.220856 
	C1228.112427,337.145874 1228.050049,336.070892 1228.176025,334.209778 
	C1228.122681,333.137726 1228.069458,332.065704 1228.218262,330.340546 
M43.780937,408.474823 
	C43.780334,409.973907 44.022068,411.521057 43.736179,412.963593 
	C42.637947,418.505310 45.233849,420.253937 50.424980,421.201660 
	C72.322296,425.199524 94.191582,424.619537 116.086929,421.626862 
	C145.559494,417.598541 173.944931,409.008514 202.471237,400.973541 
	C225.371307,394.523346 248.378571,388.453705 271.670288,382.124969 
	C271.670288,363.155579 271.670288,343.596954 271.670288,323.377960 
	C265.140930,324.768524 258.925018,325.789978 252.877243,327.430969 
	C221.219498,336.021118 189.669815,345.016052 157.956055,353.391174 
	C126.392647,361.726654 94.405716,366.859650 61.588100,363.192047 
	C55.736824,362.538116 49.929001,361.495392 43.780968,360.584778 
	C43.780968,376.540833 43.780968,392.012238 43.780937,408.474823 
M301.349548,405.997437 
	C296.055634,406.570740 290.646729,406.635925 285.487183,407.803162 
	C259.869049,413.598755 234.146454,419.049011 208.785828,425.835999 
	C179.710144,433.617249 151.046036,442.974060 121.205978,447.633362 
	C112.882996,448.932922 104.493187,449.804565 96.164078,450.868652 
	C96.164078,470.717560 96.164078,490.291504 96.164078,510.735809 
	C108.227661,508.973480 120.075302,508.122894 131.475342,505.399048 
	C157.327377,499.222076 183.024551,492.361816 208.662430,485.333344 
	C236.101746,477.811005 263.395081,469.688965 291.820526,466.691956 
	C302.358643,465.580872 312.970215,465.166595 323.816711,464.415955 
	C323.816711,444.920654 323.816711,425.362091 323.816711,405.927551 
	C316.475067,405.927551 309.371918,405.927551 301.349548,405.997437 
M300.106934,264.500000 
	C300.106934,253.411591 300.106934,242.323196 300.106934,230.919266 
	C297.236267,231.083481 295.046051,230.950607 292.966064,231.367554 
	C271.459808,235.678665 249.753571,239.225876 228.526962,244.646072 
	C193.399063,253.615936 159.076385,265.714417 123.205750,271.809418 
	C120.132820,272.331573 120.068886,273.966003 120.079872,276.316956 
	C120.158470,293.142670 120.157295,309.968750 120.202621,326.794647 
	C120.206520,328.240967 120.363571,329.686920 120.466125,331.413208 
	C121.971466,331.275391 123.119064,331.303070 124.201767,331.051453 
	C142.352798,326.833252 160.633881,323.091095 178.612076,318.229889 
	C217.618073,307.682953 255.921600,294.230194 296.542664,290.618835 
	C299.215515,290.381226 300.218018,289.256104 300.150665,286.490204 
	C299.980408,279.497253 300.102203,272.497192 300.106934,264.500000 
M527.610291,432.066437 
	C535.207275,428.933563 542.804321,425.800690 550.493835,422.629669 
	C546.557983,413.863800 543.198120,406.380737 539.784302,398.777588 
	C537.604431,399.874481 535.982178,400.715424 534.339111,401.513519 
	C524.079468,406.496857 513.422913,410.214325 501.960480,411.018005 
	C488.864563,411.936188 478.855469,405.391083 477.314423,394.350861 
	C476.523773,388.686737 477.175690,382.821228 477.175690,376.914673 
	C504.143860,375.361908 530.846313,373.824463 557.644226,372.281525 
	C557.644226,355.889404 558.213867,339.750977 557.490356,323.670746 
	C556.704041,306.193726 549.594299,291.686188 533.340271,283.333923 
	C520.783752,276.881622 507.225647,275.982971 493.396057,277.848297 
	C467.288879,281.369659 449.896851,299.471832 449.217743,325.168427 
	C448.601898,348.470459 448.647919,371.808136 449.120178,395.115570 
	C449.573547,417.488007 463.681274,432.490540 485.811249,435.437256 
	C499.709473,437.287842 513.389587,436.319916 527.610291,432.066437 
M959.046753,324.583130 
	C958.918762,315.789642 957.265137,307.338684 952.600586,299.780548 
	C943.938538,285.745117 930.613525,279.528503 914.753540,277.834717 
	C900.872314,276.352264 887.555725,278.623138 874.849426,284.387115 
	C873.835632,282.624084 872.980713,281.137329 872.483154,280.272034 
	C863.880798,280.272034 855.947998,280.272034 848.035828,280.272034 
	C848.035828,330.970245 848.035828,381.574280 848.035828,432.349304 
	C856.976379,432.349304 865.669189,432.349304 874.648621,432.349304 
	C874.648621,430.134644 874.652100,428.317413 874.648193,426.500183 
	C874.576538,393.181488 874.494751,359.862854 874.434937,326.544128 
	C874.401428,307.873810 874.510864,307.762268 893.290955,304.371918 
	C894.273560,304.194519 895.263367,304.038422 896.256653,303.942078 
	C918.849060,301.750092 931.915283,313.607666 931.900085,336.237885 
	C931.880310,365.732361 931.887146,395.226868 931.882690,424.721344 
	C931.882324,427.310852 931.882751,429.900360 931.882751,432.376556 
	C941.402588,432.376556 950.132080,432.376556 959.075928,432.376556 
	C959.075928,396.525299 959.075928,361.043549 959.046753,324.583130 
M992.594055,219.090500 
	C990.305542,219.090500 988.017090,219.090500 985.147156,219.090500 
	C985.147156,221.272186 985.147217,223.050568 985.147156,224.828949 
	C985.146484,277.614380 985.118103,330.399841 985.179871,383.185211 
	C985.187622,389.829620 985.176819,396.536774 986.020630,403.106201 
	C988.968872,426.059357 1006.236877,435.087189 1023.645874,436.187836 
	C1024.723877,436.255981 1026.561401,435.648193 1026.862061,434.887329 
	C1029.392578,428.482941 1031.646729,421.969360 1034.048096,415.311005 
	C1032.725708,414.876038 1031.966675,414.576294 1031.182251,414.375763 
	C1017.429260,410.860229 1012.804626,404.889740 1012.818970,390.624817 
	C1012.845703,363.982391 1012.873413,337.339935 1012.917480,310.697540 
	C1012.919922,309.252930 1013.076050,307.808594 1013.182190,305.995636 
	C1020.119141,305.995636 1026.748657,306.130768 1033.364624,305.888733 
	C1034.795410,305.836365 1037.077271,304.715729 1037.435547,303.596771 
	C1039.895630,295.912354 1041.948486,288.097473 1044.300415,279.726624 
	C1033.462646,279.726624 1023.381104,279.726624 1012.853699,279.726624 
	C1012.853699,259.404968 1012.853699,239.514725 1012.853699,219.093369 
	C1006.125427,219.093369 999.846985,219.093369 992.594055,219.090500 
M297.217834,373.231628 
	C297.299622,374.830658 297.381378,376.429688 297.438507,377.547272 
	C316.169678,378.602539 334.470642,379.633545 352.798218,380.666077 
	C352.798218,361.973694 352.798218,342.602875 352.798218,323.176849 
	C334.360229,319.171265 316.121307,317.696533 297.217499,319.444397 
	C297.217499,337.391876 297.217499,354.838135 297.217834,373.231628 
M1066.925659,239.437866 
	C1070.907227,245.273148 1076.350464,247.712250 1083.262085,245.991501 
	C1089.533936,244.429993 1093.244141,240.077316 1094.307739,233.848373 
	C1095.377441,227.584076 1093.072998,222.434067 1087.814209,218.735062 
	C1082.447266,214.960022 1075.564331,215.252380 1070.223633,219.446182 
	C1064.520264,223.924744 1063.200439,230.851868 1066.925659,239.437866 
z"/>
<path fill="#115FFB" opacity="1.000000" stroke="none" 
	d="
M43.780952,407.979218 
	C43.780968,392.012238 43.780968,376.540833 43.780968,360.584778 
	C49.929001,361.495392 55.736824,362.538116 61.588100,363.192047 
	C94.405716,366.859650 126.392647,361.726654 157.956055,353.391174 
	C189.669815,345.016052 221.219498,336.021118 252.877243,327.430969 
	C258.925018,325.789978 265.140930,324.768524 271.670288,323.377960 
	C271.670288,343.596954 271.670288,363.155579 271.670288,382.124969 
	C248.378571,388.453705 225.371307,394.523346 202.471237,400.973541 
	C173.944931,409.008514 145.559494,417.598541 116.086929,421.626862 
	C94.191582,424.619537 72.322296,425.199524 50.424980,421.201660 
	C45.233849,420.253937 42.637947,418.505310 43.736179,412.963593 
	C44.022068,411.521057 43.780334,409.973907 43.780952,407.979218 
z"/>
<path fill="#115FFB" opacity="1.000000" stroke="none" 
	d="
M301.809143,405.962494 
	C309.371918,405.927551 316.475067,405.927551 323.816711,405.927551 
	C323.816711,425.362091 323.816711,444.920654 323.816711,464.415955 
	C312.970215,465.166595 302.358643,465.580872 291.820526,466.691956 
	C263.395081,469.688965 236.101746,477.811005 208.662430,485.333344 
	C183.024551,492.361816 157.327377,499.222076 131.475342,505.399048 
	C120.075302,508.122894 108.227661,508.973480 96.164078,510.735809 
	C96.164078,490.291504 96.164078,470.717560 96.164078,450.868652 
	C104.493187,449.804565 112.882996,448.932922 121.205978,447.633362 
	C151.046036,442.974060 179.710144,433.617249 208.785828,425.835999 
	C234.146454,419.049011 259.869049,413.598755 285.487183,407.803162 
	C290.646729,406.635925 296.055634,406.570740 301.809143,405.962494 
z"/>
<path fill="#363A40" opacity="1.000000" stroke="none" 
	d="
M1203.026367,279.851471 
	C1203.462524,279.789734 1203.898804,279.727997 1204.923340,280.106689 
	C1210.646484,280.703430 1215.804321,281.226227 1220.909668,280.908600 
	C1225.610596,280.616119 1227.262085,281.897125 1227.117554,286.868408 
	C1226.759644,299.182343 1226.960693,311.513947 1227.044922,323.837708 
	C1227.056641,325.562164 1227.675415,327.282471 1228.013184,329.004669 
	C1228.081665,329.449951 1228.149902,329.895264 1227.845459,330.867188 
	C1227.644409,332.594513 1227.816040,333.795197 1227.987793,334.995911 
	C1228.050049,336.070892 1228.112427,337.145874 1227.779297,338.906921 
	C1227.267090,353.035492 1227.133179,366.477997 1227.084717,379.920807 
	C1227.082275,380.596954 1227.818115,381.275787 1228.210205,381.953369 
	C1228.949341,385.344360 1229.471802,388.800537 1230.468140,392.114197 
	C1233.506714,402.219696 1240.250000,408.078827 1250.848755,409.286804 
	C1251.014282,409.305664 1251.179810,409.323914 1251.345337,409.343231 
	C1274.085571,412.000336 1286.438354,401.584412 1286.955566,378.659180 
	C1287.368652,360.344116 1287.091553,342.014008 1287.184814,323.690948 
	C1287.247925,311.299469 1289.308228,299.503204 1297.567261,289.567841 
	C1303.352173,282.608826 1310.835571,278.779297 1319.957275,276.857941 
	C1323.134399,284.073334 1326.247681,291.143951 1329.481201,298.487457 
	C1317.448853,303.657196 1313.910278,313.045776 1313.988647,325.164124 
	C1314.270752,368.806305 1314.121582,412.451202 1313.874146,456.638794 
	C1313.549072,457.282440 1313.408081,457.435852 1313.434082,457.473328 
	C1313.563232,457.659241 1313.736450,457.814575 1313.894165,457.980652 
	C1312.822876,483.195251 1298.100342,493.625031 1276.626709,496.907471 
	C1273.609375,490.054443 1270.520142,483.038025 1267.363647,475.868591 
	C1270.025635,474.826660 1272.066528,474.150909 1274.001831,473.248535 
	C1281.755493,469.633118 1286.319336,463.498840 1286.748535,454.999176 
	C1287.189331,446.271729 1286.846436,437.504639 1286.846436,428.357574 
	C1271.938721,438.257324 1255.767700,438.220734 1239.495605,434.889160 
	C1218.560059,430.602692 1204.982910,414.946411 1202.226318,393.189972 
	C1201.912598,390.714478 1201.660034,388.231262 1201.815918,385.206970 
	C1201.996460,382.120270 1201.740234,379.578278 1201.484131,377.036285 
	C1201.401489,376.571655 1201.318848,376.107025 1201.699219,375.156433 
	C1202.439819,372.940521 1202.956055,371.211029 1202.959595,369.480530 
	C1203.019409,339.604248 1203.015869,309.727844 1203.026367,279.851471 
z"/>
<path fill="#115FFB" opacity="1.000000" stroke="none" 
	d="
M300.106934,265.000000 
	C300.102203,272.497192 299.980408,279.497253 300.150665,286.490204 
	C300.218018,289.256104 299.215515,290.381226 296.542664,290.618835 
	C255.921600,294.230194 217.618073,307.682953 178.612076,318.229889 
	C160.633881,323.091095 142.352798,326.833252 124.201767,331.051453 
	C123.119064,331.303070 121.971466,331.275391 120.466125,331.413208 
	C120.363571,329.686920 120.206520,328.240967 120.202621,326.794647 
	C120.157295,309.968750 120.158470,293.142670 120.079872,276.316956 
	C120.068886,273.966003 120.132820,272.331573 123.205750,271.809418 
	C159.076385,265.714417 193.399063,253.615936 228.526962,244.646072 
	C249.753571,239.225876 271.459808,235.678665 292.966064,231.367554 
	C295.046051,230.950607 297.236267,231.083481 300.106934,230.919266 
	C300.106934,242.323196 300.106934,253.411591 300.106934,265.000000 
z"/>
<path fill="#363A40" opacity="1.000000" stroke="none" 
	d="
M527.221436,432.169556 
	C513.389587,436.319916 499.709473,437.287842 485.811249,435.437256 
	C463.681274,432.490540 449.573547,417.488007 449.120178,395.115570 
	C448.647919,371.808136 448.601898,348.470459 449.217743,325.168427 
	C449.896851,299.471832 467.288879,281.369659 493.396057,277.848297 
	C507.225647,275.982971 520.783752,276.881622 533.340271,283.333923 
	C549.594299,291.686188 556.704041,306.193726 557.490356,323.670746 
	C558.213867,339.750977 557.644226,355.889404 557.644226,372.281525 
	C530.846313,373.824463 504.143860,375.361908 477.175690,376.914673 
	C477.175690,382.821228 476.523773,388.686737 477.314423,394.350861 
	C478.855469,405.391083 488.864563,411.936188 501.960480,411.018005 
	C513.422913,410.214325 524.079468,406.496857 534.339111,401.513519 
	C535.982178,400.715424 537.604431,399.874481 539.784302,398.777588 
	C543.198120,406.380737 546.557983,413.863800 550.493835,422.629669 
	C542.804321,425.800690 535.207275,428.933563 527.221436,432.169556 
M482.551178,312.123718 
	C473.343597,323.929443 477.811066,337.503754 476.661926,350.807617 
	C494.992493,349.823761 512.376465,348.890747 529.849426,347.952911 
	C529.849426,339.393768 530.550110,331.505676 529.581360,323.828217 
	C529.018372,319.367126 526.626404,314.474274 523.582336,311.110687 
	C513.681213,300.170227 495.270782,300.683319 482.551178,312.123718 
z"/>
<path fill="#363A40" opacity="1.000000" stroke="none" 
	d="
M818.009155,326.003174 
	C818.086609,340.693024 818.164124,355.382843 817.682861,370.527618 
	C815.029907,370.984283 812.902161,370.755310 810.851074,371.053680 
	C808.866516,371.342377 806.960876,372.173859 805.020508,372.766907 
	C791.094421,373.636444 777.168091,374.500702 763.242432,375.377594 
	C754.970947,375.898499 746.700745,376.439178 737.431519,377.035187 
	C737.833374,383.567841 737.479736,390.105133 738.786316,396.291779 
	C740.965210,406.608856 751.984314,412.481201 764.395752,410.881409 
	C777.078796,409.246613 789.027405,405.362701 800.714111,398.774170 
	C804.129272,406.438049 807.473022,413.941620 811.174194,422.247375 
	C806.932190,424.331146 802.774292,426.619049 798.428650,428.464844 
	C781.659424,435.587463 764.179565,437.882690 746.144958,435.434814 
	C735.375122,433.972961 726.218689,429.248688 718.979248,420.179077 
	C717.624756,417.612244 719.168579,413.769806 714.980713,414.003418 
	C714.532166,413.229736 714.083618,412.456055 713.779785,411.287720 
	C713.798157,410.928680 713.671814,410.964294 713.545471,410.999939 
	C713.545471,410.999908 713.285706,410.752960 713.463257,410.198181 
	C712.974609,406.292328 711.742371,402.942932 711.732605,399.589935 
	C711.660950,374.879089 711.855469,350.167572 711.874695,325.456177 
	C711.875916,323.940918 711.098267,322.425049 710.683044,320.909454 
	C710.671021,320.480133 710.658936,320.050812 711.050171,319.147186 
	C711.547363,317.423279 711.641296,316.173706 711.735229,314.924103 
	C711.735229,314.924103 711.709839,314.425842 712.121277,314.087402 
	C712.626282,312.814789 712.719849,311.880585 712.813477,310.946381 
	C716.968323,296.902313 726.190369,287.262939 739.523315,281.922424 
	C755.865662,275.376495 772.722168,274.931396 789.229980,281.153717 
	C807.882507,288.184448 816.682068,302.709442 817.822021,322.750366 
	C817.655273,324.244507 817.832214,325.123840 818.009155,326.003174 
M754.501404,349.947937 
	C766.569458,349.263000 778.637512,348.578064 790.931213,347.880280 
	C790.931213,340.470093 791.243103,333.805756 790.863525,327.180969 
	C790.163696,314.965546 784.308411,307.597900 773.383972,304.410889 
	C758.245667,299.994568 741.364563,307.870941 738.948608,321.454773 
	C737.283569,330.816956 737.607788,340.532898 737.049011,349.989288 
	C743.280212,349.989288 748.404907,349.989288 754.501404,349.947937 
z"/>
<path fill="#363940" opacity="1.000000" stroke="none" 
	d="
M959.061340,325.072449 
	C959.075928,361.043549 959.075928,396.525299 959.075928,432.376556 
	C950.132080,432.376556 941.402588,432.376556 931.882751,432.376556 
	C931.882751,429.900360 931.882324,427.310852 931.882690,424.721344 
	C931.887146,395.226868 931.880310,365.732361 931.900085,336.237885 
	C931.915283,313.607666 918.849060,301.750092 896.256653,303.942078 
	C895.263367,304.038422 894.273560,304.194519 893.290955,304.371918 
	C874.510864,307.762268 874.401428,307.873810 874.434937,326.544128 
	C874.494751,359.862854 874.576538,393.181488 874.648193,426.500183 
	C874.652100,428.317413 874.648621,430.134644 874.648621,432.349304 
	C865.669189,432.349304 856.976379,432.349304 848.035828,432.349304 
	C848.035828,381.574280 848.035828,330.970245 848.035828,280.272034 
	C855.947998,280.272034 863.880798,280.272034 872.483154,280.272034 
	C872.980713,281.137329 873.835632,282.624084 874.849426,284.387115 
	C887.555725,278.623138 900.872314,276.352264 914.753540,277.834717 
	C930.613525,279.528503 943.938538,285.745117 952.600586,299.780548 
	C957.265137,307.338684 958.918762,315.789642 959.061340,325.072449 
z"/>
<path fill="#373A40" opacity="1.000000" stroke="none" 
	d="
M693.106812,283.052551 
	C688.382446,298.648804 683.723328,314.265198 678.920227,329.837128 
	C668.767944,362.750763 658.486511,395.624756 648.425476,428.566101 
	C647.402527,431.915741 645.907654,432.972137 642.495850,432.825623 
	C636.013794,432.547211 629.501221,432.536224 623.020996,432.837128 
	C619.563538,432.997681 618.096130,431.846832 617.080444,428.546997 
	C605.490356,390.890198 593.738708,353.283112 582.045471,315.658020 
	C578.642334,304.707611 575.287842,293.742126 572.333923,282.224274 
	C574.516663,281.447144 576.275574,281.221924 578.036438,281.013062 
	C581.027405,280.658295 584.019531,280.313843 587.011169,279.965088 
	C587.451050,279.888611 587.890869,279.812134 588.921875,280.149963 
	C593.007507,280.379578 596.502075,280.194885 599.996582,280.010193 
	C602.010620,285.850769 604.226807,291.630585 606.004578,297.542236 
	C614.766541,326.679291 623.411560,355.851562 632.110596,385.007538 
	C632.199280,385.304657 632.460083,385.550415 633.225037,386.693817 
	C633.929260,384.564606 634.491272,383.010071 634.959839,381.427795 
	C644.509277,349.183105 654.044800,316.934235 663.599365,284.691010 
	C664.068115,283.109100 664.684692,281.570984 665.881836,280.295349 
	C673.479065,280.723755 680.434143,280.732727 687.369934,281.102631 
	C689.311340,281.206177 691.196106,282.373291 693.106812,283.052551 
z"/>
<path fill="#373B41" opacity="1.000000" stroke="none" 
	d="
M993.081299,219.091934 
	C999.846985,219.093369 1006.125427,219.093369 1012.853699,219.093369 
	C1012.853699,239.514725 1012.853699,259.404968 1012.853699,279.726624 
	C1023.381104,279.726624 1033.462646,279.726624 1044.300415,279.726624 
	C1041.948486,288.097473 1039.895630,295.912354 1037.435547,303.596771 
	C1037.077271,304.715729 1034.795410,305.836365 1033.364624,305.888733 
	C1026.748657,306.130768 1020.119141,305.995636 1013.182190,305.995636 
	C1013.076050,307.808594 1012.919922,309.252930 1012.917480,310.697540 
	C1012.873413,337.339935 1012.845703,363.982391 1012.818970,390.624817 
	C1012.804626,404.889740 1017.429260,410.860229 1031.182251,414.375763 
	C1031.966675,414.576294 1032.725708,414.876038 1034.048096,415.311005 
	C1031.646729,421.969360 1029.392578,428.482941 1026.862061,434.887329 
	C1026.561401,435.648193 1024.723877,436.255981 1023.645874,436.187836 
	C1006.236877,435.087189 988.968872,426.059357 986.020630,403.106201 
	C985.176819,396.536774 985.187622,389.829620 985.179871,383.185211 
	C985.118103,330.399841 985.146484,277.614380 985.147156,224.828949 
	C985.147217,223.050568 985.147156,221.272186 985.147156,219.090500 
	C988.017090,219.090500 990.305542,219.090500 993.081299,219.091934 
z"/>
<path fill="#383B42" opacity="1.000000" stroke="none" 
	d="
M1124.874634,259.959320 
	C1124.296875,236.093918 1140.645508,217.998032 1164.851929,216.080322 
	C1171.111816,215.584412 1177.444214,216.005737 1184.541748,216.005737 
	C1182.889648,225.183395 1181.435059,233.264420 1179.947144,241.529663 
	C1177.122070,241.365463 1174.667114,241.050644 1172.221191,241.110321 
	C1161.532593,241.371124 1154.422607,247.100586 1152.887695,257.644592 
	C1151.864380,264.674408 1152.040405,271.878815 1151.651611,279.562958 
	C1161.822388,279.562958 1171.383423,279.562958 1181.433960,279.562958 
	C1178.936401,288.629822 1176.610718,297.072540 1174.179565,305.897919 
	C1166.935303,305.897919 1159.841187,305.897919 1152.248779,305.897919 
	C1152.248779,348.234528 1152.248779,390.120087 1152.248779,432.699829 
	C1143.156494,432.699829 1134.554077,432.735779 1125.953735,432.613861 
	C1125.416016,432.606262 1124.895874,431.362488 1124.849365,430.155762 
	C1125.554077,428.352844 1125.971191,427.088135 1125.971924,425.823151 
	C1126.004639,372.068298 1126.009766,318.313416 1125.953613,264.558594 
	C1125.952026,263.025116 1125.250000,261.492401 1124.874634,259.959320 
z"/>
<path fill="#393D43" opacity="1.000000" stroke="none" 
	d="
M1092.569336,290.307556 
	C1092.656250,292.175720 1092.743286,294.043915 1092.338257,296.554016 
	C1092.093994,300.230652 1092.341797,303.265289 1092.589600,306.299957 
	C1092.669800,309.147400 1092.750122,311.994873 1092.317139,315.528198 
	C1091.536377,317.478973 1091.037109,318.743439 1091.035156,320.008728 
	C1090.991699,348.644562 1090.979126,377.280579 1091.070679,405.916260 
	C1091.075317,407.379517 1092.061523,408.839630 1092.590820,410.301208 
	C1092.670898,414.812164 1092.750977,419.323120 1092.387939,424.456146 
	C1092.160400,426.372009 1092.376099,427.665771 1092.591675,428.959564 
	C1093.434204,431.463623 1092.760254,432.693420 1089.892944,432.662018 
	C1081.918823,432.574615 1073.943237,432.631653 1065.574707,432.631653 
	C1065.410034,431.252319 1065.130859,430.003052 1065.130493,428.753693 
	C1065.113159,380.460114 1065.147827,332.166443 1065.064087,283.873047 
	C1065.058716,280.756317 1065.627197,279.047729 1069.814209,280.160767 
	C1077.325562,280.747833 1084.125610,280.909576 1090.956055,281.513245 
	C1091.514038,284.739319 1092.041748,287.523438 1092.569336,290.307556 
z"/>
<path fill="#115FFB" opacity="1.000000" stroke="none" 
	d="
M297.217651,372.758026 
	C297.217499,354.838135 297.217499,337.391876 297.217499,319.444397 
	C316.121307,317.696533 334.360229,319.171265 352.798218,323.176849 
	C352.798218,342.602875 352.798218,361.973694 352.798218,380.666077 
	C334.470642,379.633545 316.169678,378.602539 297.438507,377.547272 
	C297.381378,376.429688 297.299622,374.830658 297.217651,372.758026 
z"/>
<path fill="#373B41" opacity="1.000000" stroke="none" 
	d="
M1066.729980,239.123383 
	C1063.200439,230.851868 1064.520264,223.924744 1070.223633,219.446182 
	C1075.564331,215.252380 1082.447266,214.960022 1087.814209,218.735062 
	C1093.072998,222.434067 1095.377441,227.584076 1094.307739,233.848373 
	C1093.244141,240.077316 1089.533936,244.429993 1083.262085,245.991501 
	C1076.350464,247.712250 1070.907227,245.273148 1066.729980,239.123383 
z"/>
<path fill="#272C2F" opacity="1.000000" stroke="none" 
	d="
M1124.752930,260.363831 
	C1125.250000,261.492401 1125.952026,263.025116 1125.953613,264.558594 
	C1126.009766,318.313416 1126.004639,372.068298 1125.971924,425.823151 
	C1125.971191,427.088135 1125.554077,428.352844 1125.003296,429.785828 
	C1124.562744,428.139130 1124.351929,426.324280 1124.351318,424.509399 
	C1124.333984,372.255249 1124.333862,320.001129 1124.350342,267.746979 
	C1124.351074,265.420715 1124.533569,263.094543 1124.752930,260.363831 
z"/>
<path fill="#22282B" opacity="1.000000" stroke="none" 
	d="
M1202.554443,279.837738 
	C1203.015869,309.727844 1203.019409,339.604248 1202.959595,369.480530 
	C1202.956055,371.211029 1202.439819,372.940521 1201.811768,374.815613 
	C1201.365356,360.700500 1201.225952,346.440369 1201.184570,332.179932 
	C1201.138306,316.252045 1201.156494,300.323761 1201.223877,284.395966 
	C1201.230225,282.870819 1201.783447,281.347931 1202.554443,279.837738 
z"/>
<path fill="#4D5055" opacity="1.000000" stroke="none" 
	d="
M710.496338,321.280090 
	C711.098267,322.425049 711.875916,323.940918 711.874695,325.456177 
	C711.855469,350.167572 711.660950,374.879089 711.732605,399.589935 
	C711.742371,402.942932 712.974609,406.292328 713.440796,410.020386 
	C712.222534,406.244263 710.362305,402.098907 710.323914,397.936768 
	C710.089478,372.510223 710.268494,347.079803 710.496338,321.280090 
z"/>
<path fill="#22282B" opacity="1.000000" stroke="none" 
	d="
M1092.688110,409.885376 
	C1092.061523,408.839630 1091.075317,407.379517 1091.070679,405.916260 
	C1090.979126,377.280579 1090.991699,348.644562 1091.035156,320.008728 
	C1091.037109,318.743439 1091.536377,317.478973 1092.183105,315.935608 
	C1092.615356,339.108826 1092.667603,362.560547 1092.722046,386.012238 
	C1092.740234,393.831329 1092.764160,401.650421 1092.688110,409.885376 
z"/>
<path fill="#22282B" opacity="1.000000" stroke="none" 
	d="
M1228.093994,328.541656 
	C1227.675415,327.282471 1227.056641,325.562164 1227.044922,323.837708 
	C1226.960693,311.513947 1226.759644,299.182343 1227.117554,286.868408 
	C1227.262085,281.897125 1225.610596,280.616119 1220.909668,280.908600 
	C1215.804321,281.226227 1210.646484,280.703430 1205.236328,280.223236 
	C1212.546509,279.899353 1220.132080,279.899353 1228.174805,279.899353 
	C1228.174805,296.016876 1228.174805,312.047760 1228.093994,328.541656 
z"/>
<path fill="#1F2326" opacity="1.000000" stroke="none" 
	d="
M693.321533,282.741058 
	C691.196106,282.373291 689.311340,281.206177 687.369934,281.102631 
	C680.434143,280.732727 673.479065,280.723755 666.251282,280.261261 
	C674.656921,279.887878 683.343079,279.786224 692.026855,279.888947 
	C692.539917,279.894989 693.033569,281.544708 693.321533,282.741058 
z"/>
<path fill="#1F2326" opacity="1.000000" stroke="none" 
	d="
M1228.269531,381.490540 
	C1227.818115,381.275787 1227.082275,380.596954 1227.084717,379.920807 
	C1227.133179,366.477997 1227.267090,353.035492 1227.681396,339.300659 
	C1228.095581,353.014801 1228.212280,367.021240 1228.269531,381.490540 
z"/>
<path fill="#1F2326" opacity="1.000000" stroke="none" 
	d="
M586.561829,279.886047 
	C584.019531,280.313843 581.027405,280.658295 578.036438,281.013062 
	C576.275574,281.221924 574.516663,281.447144 572.375671,281.833801 
	C570.487183,279.798950 571.648682,279.592499 573.616333,279.654236 
	C577.779175,279.785004 581.946838,279.765167 586.561829,279.886047 
z"/>
<path fill="#22282B" opacity="1.000000" stroke="none" 
	d="
M1090.925781,281.071289 
	C1084.125610,280.909576 1077.325562,280.747833 1070.251709,280.263184 
	C1076.668823,279.883667 1083.359619,279.827118 1090.547119,280.088440 
	C1091.060913,280.574463 1091.077881,280.742645 1091.052490,280.950867 
	C1091.010132,280.990906 1090.925781,281.071289 1090.925781,281.071289 
z"/>
<path fill="#272C2F" opacity="1.000000" stroke="none" 
	d="
M805.447632,372.822021 
	C806.960876,372.173859 808.866516,371.342377 810.851074,371.053680 
	C812.902161,370.755310 815.029907,370.984283 817.589539,370.987885 
	C813.994873,371.621216 809.934875,372.249176 805.447632,372.822021 
z"/>
<path fill="#22282B" opacity="1.000000" stroke="none" 
	d="
M1092.686157,305.909576 
	C1092.341797,303.265289 1092.093994,300.230652 1092.217163,296.938965 
	C1092.652954,299.627686 1092.717896,302.573456 1092.686157,305.909576 
z"/>
<path fill="#1F2326" opacity="1.000000" stroke="none" 
	d="
M599.617188,279.873413 
	C596.502075,280.194885 593.007507,280.379578 589.244995,280.252014 
	C592.397278,279.872040 595.817505,279.804352 599.617188,279.873413 
z"/>
<path fill="#22282B" opacity="1.000000" stroke="none" 
	d="
M1201.392822,377.469788 
	C1201.740234,379.578278 1201.996460,382.120270 1201.938232,384.806641 
	C1201.516357,382.601807 1201.408936,380.252563 1201.392822,377.469788 
z"/>
<path fill="#4D5055" opacity="1.000000" stroke="none" 
	d="
M714.997314,414.352570 
	C719.168579,413.769806 717.624756,417.612244 718.871338,419.867859 
	C717.586853,418.409943 716.300415,416.555847 714.997314,414.352570 
z"/>
<path fill="#22282B" opacity="1.000000" stroke="none" 
	d="
M1092.667847,289.842804 
	C1092.041748,287.523438 1091.514038,284.739319 1090.956055,281.513245 
	C1090.925781,281.071289 1091.010132,280.990906 1091.440308,281.012695 
	C1092.132080,281.057953 1092.393799,281.081451 1092.655396,281.104919 
	C1092.692383,283.862640 1092.729370,286.620331 1092.667847,289.842804 
z"/>
<path fill="#22282B" opacity="1.000000" stroke="none" 
	d="
M1092.690063,428.613373 
	C1092.376099,427.665771 1092.160400,426.372009 1092.265381,424.886871 
	C1092.653320,425.886078 1092.720825,427.076630 1092.690063,428.613373 
z"/>
<path fill="#4D5055" opacity="1.000000" stroke="none" 
	d="
M711.548218,315.131897 
	C711.641296,316.173706 711.547363,317.423279 711.181458,318.850342 
	C711.060059,317.798431 711.210571,316.569061 711.548218,315.131897 
z"/>
<path fill="#4D5055" opacity="1.000000" stroke="none" 
	d="
M712.587097,311.185242 
	C712.719849,311.880585 712.626282,312.814789 712.250916,313.874329 
	C712.099670,313.141113 712.230225,312.282623 712.587097,311.185242 
z"/>
<path fill="#22282B" opacity="1.000000" stroke="none" 
	d="
M1228.081909,334.602844 
	C1227.816040,333.795197 1227.644409,332.594513 1227.744385,331.193726 
	C1228.069458,332.065704 1228.122681,333.137726 1228.081909,334.602844 
z"/>
<path fill="#393D43" opacity="1.000000" stroke="none" 
	d="
M1092.789062,280.928223 
	C1092.393799,281.081451 1092.132080,281.057953 1091.482666,280.972656 
	C1091.077881,280.742645 1091.060913,280.574463 1091.010132,280.154907 
	C1091.625244,280.186218 1092.274048,280.468842 1092.789062,280.928223 
z"/>
<path fill="#272C2F" opacity="1.000000" stroke="none" 
	d="
M818.093018,325.632568 
	C817.832214,325.123840 817.655273,324.244507 817.731750,323.184692 
	C818.049133,323.756805 818.113037,324.509399 818.093018,325.632568 
z"/>
<path fill="#4D5055" opacity="1.000000" stroke="none" 
	d="
M713.550903,410.989441 
	C713.671814,410.964294 713.798157,410.928680 713.721436,410.955200 
	C713.518311,411.017303 713.556274,410.978973 713.550903,410.989441 
z"/>
<path fill="#272C2F" opacity="1.000000" stroke="none" 
	d="
M1313.970947,457.741791 
	C1313.736450,457.814575 1313.563232,457.659241 1313.434082,457.473328 
	C1313.408081,457.435852 1313.549072,457.282440 1313.771973,457.098663 
	C1313.969849,457.177521 1314.008911,457.340210 1313.970947,457.741791 
z"/>
<path fill="#FCFCFC" opacity="1.000000" stroke="none" 
	d="
M482.797058,311.856293 
	C495.270782,300.683319 513.681213,300.170227 523.582336,311.110687 
	C526.626404,314.474274 529.018372,319.367126 529.581360,323.828217 
	C530.550110,331.505676 529.849426,339.393768 529.849426,347.952911 
	C512.376465,348.890747 494.992493,349.823761 476.661926,350.807617 
	C477.811066,337.503754 473.343597,323.929443 482.797058,311.856293 
z"/>
<path fill="#FBFBFB" opacity="1.000000" stroke="none" 
	d="
M754.015503,349.968628 
	C748.404907,349.989288 743.280212,349.989288 737.049011,349.989288 
	C737.607788,340.532898 737.283569,330.816956 738.948608,321.454773 
	C741.364563,307.870941 758.245667,299.994568 773.383972,304.410889 
	C784.308411,307.597900 790.163696,314.965546 790.863525,327.180969 
	C791.243103,333.805756 790.931213,340.470093 790.931213,347.880280 
	C778.637512,348.578064 766.569458,349.263000 754.015503,349.968628 
z"/>
</svg>